<mxfile host="app.diagrams.net" modified="2020-11-19T11:24:24.819Z" agent="5.0 (X11)" etag="ybPavATrbohHUtmVCt9W" version="13.9.9" type="github" pages="3">
  <diagram id="vSsBbyGpL86iU16PmAUu" name="Page-1">
    <mxGraphModel dx="1152" dy="831" grid="1" gridSize="10" guides="1" tooltips="1" connect="1" arrows="1" fold="1" page="1" pageScale="1" pageWidth="827" pageHeight="1169" math="0" shadow="0">
      <root>
        <mxCell id="0" />
        <mxCell id="1" parent="0" />
        <mxCell id="CLwiBIMFmUd81njh_HAW-16" value="RL Agent" style="rounded=1;whiteSpace=wrap;html=1;labelBackgroundColor=none;strokeColor=#99FFFF;opacity=70;labelPosition=center;verticalLabelPosition=top;align=center;verticalAlign=bottom;fillColor=#FF3333;" parent="1" vertex="1">
          <mxGeometry x="170" y="182.5" width="360" height="357.5" as="geometry" />
        </mxCell>
        <mxCell id="CLwiBIMFmUd81njh_HAW-5" value="PyFly" style="rounded=1;whiteSpace=wrap;html=1;labelBackgroundColor=none;strokeColor=#99FFFF;fillColor=#99FFFF;labelPosition=center;verticalLabelPosition=top;align=center;verticalAlign=bottom;spacingTop=0;opacity=70;" parent="1" vertex="1">
          <mxGeometry x="535" y="182.5" width="250" height="225" as="geometry" />
        </mxCell>
        <mxCell id="CLwiBIMFmUd81njh_HAW-1" value="Reinforcement Learning Controller" style="rounded=0;whiteSpace=wrap;html=1;" parent="1" vertex="1">
          <mxGeometry x="279" y="265" width="150" height="60" as="geometry" />
        </mxCell>
        <mxCell id="CLwiBIMFmUd81njh_HAW-3" value="&lt;div align=&quot;center&quot;&gt;Environment Model&lt;/div&gt;" style="rounded=0;whiteSpace=wrap;html=1;align=center;labelPosition=center;verticalLabelPosition=top;verticalAlign=bottom;fillColor=#99FF33;" parent="1" vertex="1">
          <mxGeometry x="560" y="245" width="200" height="100" as="geometry" />
        </mxCell>
        <mxCell id="CLwiBIMFmUd81njh_HAW-2" value="UAV Model " style="rounded=0;whiteSpace=wrap;html=1;fillColor=#99FF33;" parent="1" vertex="1">
          <mxGeometry x="600" y="265" width="120" height="60" as="geometry" />
        </mxCell>
        <mxCell id="CLwiBIMFmUd81njh_HAW-4" value="Sensor Model" style="rounded=0;whiteSpace=wrap;html=1;fillColor=#99FF33;" parent="1" vertex="1">
          <mxGeometry x="380" y="450" width="120" height="60" as="geometry" />
        </mxCell>
        <mxCell id="CLwiBIMFmUd81njh_HAW-7" value="" style="endArrow=classic;html=1;exitX=1;exitY=0.5;exitDx=0;exitDy=0;entryX=0;entryY=0.5;entryDx=0;entryDy=0;" parent="1" source="CLwiBIMFmUd81njh_HAW-1" target="CLwiBIMFmUd81njh_HAW-2" edge="1">
          <mxGeometry width="50" height="50" relative="1" as="geometry">
            <mxPoint x="390" y="380" as="sourcePoint" />
            <mxPoint x="440" y="330" as="targetPoint" />
          </mxGeometry>
        </mxCell>
        <mxCell id="CLwiBIMFmUd81njh_HAW-8" value="" style="endArrow=classic;html=1;entryX=0;entryY=0.5;entryDx=0;entryDy=0;exitX=1;exitY=0.5;exitDx=0;exitDy=0;" parent="1" source="CLwiBIMFmUd81njh_HAW-9" target="CLwiBIMFmUd81njh_HAW-1" edge="1">
          <mxGeometry width="50" height="50" relative="1" as="geometry">
            <mxPoint x="80" y="294.5" as="sourcePoint" />
            <mxPoint x="160" y="294.5" as="targetPoint" />
          </mxGeometry>
        </mxCell>
        <mxCell id="CLwiBIMFmUd81njh_HAW-9" value="Maneuver or Waypoint" style="text;html=1;strokeColor=none;fillColor=none;align=center;verticalAlign=middle;whiteSpace=wrap;rounded=0;labelBackgroundColor=none;opacity=70;" parent="1" vertex="1">
          <mxGeometry x="50" y="262.5" width="100" height="65" as="geometry" />
        </mxCell>
        <mxCell id="CLwiBIMFmUd81njh_HAW-13" value="Buffer + Encoder" style="rounded=0;whiteSpace=wrap;html=1;" parent="1" vertex="1">
          <mxGeometry x="230" y="450" width="120" height="60" as="geometry" />
        </mxCell>
        <mxCell id="CLwiBIMFmUd81njh_HAW-14" value="" style="endArrow=classic;html=1;exitX=0;exitY=0.5;exitDx=0;exitDy=0;entryX=1;entryY=0.5;entryDx=0;entryDy=0;" parent="1" source="CLwiBIMFmUd81njh_HAW-4" target="CLwiBIMFmUd81njh_HAW-13" edge="1">
          <mxGeometry width="50" height="50" relative="1" as="geometry">
            <mxPoint x="390" y="380" as="sourcePoint" />
            <mxPoint x="440" y="330" as="targetPoint" />
          </mxGeometry>
        </mxCell>
        <mxCell id="CLwiBIMFmUd81njh_HAW-15" value="" style="endArrow=classic;html=1;exitX=0;exitY=0.5;exitDx=0;exitDy=0;entryX=0.5;entryY=1;entryDx=0;entryDy=0;" parent="1" source="CLwiBIMFmUd81njh_HAW-13" target="CLwiBIMFmUd81njh_HAW-1" edge="1">
          <mxGeometry width="50" height="50" relative="1" as="geometry">
            <mxPoint x="390" y="380" as="sourcePoint" />
            <mxPoint x="440" y="330" as="targetPoint" />
            <Array as="points">
              <mxPoint x="190" y="480" />
              <mxPoint x="190" y="400" />
              <mxPoint x="354" y="400" />
            </Array>
          </mxGeometry>
        </mxCell>
        <mxCell id="CLwiBIMFmUd81njh_HAW-17" value="Action Vector" style="text;html=1;strokeColor=none;fillColor=none;align=center;verticalAlign=middle;whiteSpace=wrap;rounded=0;labelBackgroundColor=none;opacity=70;" parent="1" vertex="1">
          <mxGeometry x="460" y="305" width="40" height="20" as="geometry" />
        </mxCell>
        <mxCell id="CLwiBIMFmUd81njh_HAW-19" value="State Vector" style="text;html=1;strokeColor=none;fillColor=none;align=center;verticalAlign=middle;whiteSpace=wrap;rounded=0;labelBackgroundColor=none;opacity=70;" parent="1" vertex="1">
          <mxGeometry x="620" y="400" width="40" height="20" as="geometry" />
        </mxCell>
        <mxCell id="CLwiBIMFmUd81njh_HAW-24" value="" style="endArrow=classic;html=1;exitX=0.5;exitY=1;exitDx=0;exitDy=0;entryX=1;entryY=0.5;entryDx=0;entryDy=0;strokeWidth=1;" parent="1" source="CLwiBIMFmUd81njh_HAW-3" target="CLwiBIMFmUd81njh_HAW-4" edge="1">
          <mxGeometry width="50" height="50" relative="1" as="geometry">
            <mxPoint x="390" y="380" as="sourcePoint" />
            <mxPoint x="660" y="480" as="targetPoint" />
            <Array as="points">
              <mxPoint x="660" y="480" />
            </Array>
          </mxGeometry>
        </mxCell>
        <mxCell id="CLwiBIMFmUd81njh_HAW-26" value="" style="rounded=0;whiteSpace=wrap;html=1;align=center;labelPosition=center;verticalLabelPosition=top;verticalAlign=bottom;sketch=0;fillColor=#99FF33;" parent="1" vertex="1">
          <mxGeometry x="179" y="565" width="60" height="20" as="geometry" />
        </mxCell>
        <mxCell id="CLwiBIMFmUd81njh_HAW-29" value="Subject to Domain randomization" style="text;html=1;align=center;verticalAlign=middle;resizable=0;points=[];autosize=1;" parent="1" vertex="1">
          <mxGeometry x="239" y="565" width="190" height="20" as="geometry" />
        </mxCell>
        <mxCell id="CLwiBIMFmUd81njh_HAW-31" value="" style="endArrow=classic;html=1;strokeWidth=1;entryX=0.5;entryY=0;entryDx=0;entryDy=0;" parent="1" target="CLwiBIMFmUd81njh_HAW-1" edge="1">
          <mxGeometry width="50" height="50" relative="1" as="geometry">
            <mxPoint x="510" y="295" as="sourcePoint" />
            <mxPoint x="440" y="330" as="targetPoint" />
            <Array as="points">
              <mxPoint x="510" y="240" />
              <mxPoint x="354" y="240" />
            </Array>
          </mxGeometry>
        </mxCell>
        <mxCell id="CLwiBIMFmUd81njh_HAW-32" value="" style="endArrow=classic;html=1;strokeWidth=1;entryX=0.5;entryY=0;entryDx=0;entryDy=0;" parent="1" target="CLwiBIMFmUd81njh_HAW-13" edge="1">
          <mxGeometry width="50" height="50" relative="1" as="geometry">
            <mxPoint x="510" y="290" as="sourcePoint" />
            <mxPoint x="440" y="330" as="targetPoint" />
            <Array as="points">
              <mxPoint x="510" y="430" />
              <mxPoint x="290" y="430" />
            </Array>
          </mxGeometry>
        </mxCell>
        <mxCell id="CLwiBIMFmUd81njh_HAW-33" value="z⁻¹" style="text;html=1;align=center;verticalAlign=middle;resizable=0;points=[];autosize=1;" parent="1" vertex="1">
          <mxGeometry x="410" y="220" width="30" height="20" as="geometry" />
        </mxCell>
        <mxCell id="CLwiBIMFmUd81njh_HAW-34" value="Latent space" style="text;html=1;align=center;verticalAlign=middle;resizable=0;points=[];autosize=1;" parent="1" vertex="1">
          <mxGeometry x="230" y="382" width="80" height="20" as="geometry" />
        </mxCell>
      </root>
    </mxGraphModel>
  </diagram>
  <diagram id="NLLupR-41t-Ko2myptYz" name="Additional">
    <mxGraphModel dx="1979" dy="831" grid="1" gridSize="10" guides="1" tooltips="1" connect="1" arrows="1" fold="1" page="1" pageScale="1" pageWidth="827" pageHeight="1169" math="0" shadow="0">
      <root>
        <mxCell id="D4b-QVvL7qLMzF1wo6HN-0" />
        <mxCell id="D4b-QVvL7qLMzF1wo6HN-1" parent="D4b-QVvL7qLMzF1wo6HN-0" />
        <mxCell id="cQaq2ZN7SKqvUSlhL3z2-0" value="RL Agent" style="rounded=1;whiteSpace=wrap;html=1;labelBackgroundColor=none;strokeColor=#99FFFF;opacity=70;labelPosition=center;verticalLabelPosition=top;align=center;verticalAlign=bottom;fillColor=#FF3333;" parent="D4b-QVvL7qLMzF1wo6HN-1" vertex="1">
          <mxGeometry x="166" y="70" width="360" height="357.5" as="geometry" />
        </mxCell>
        <mxCell id="cQaq2ZN7SKqvUSlhL3z2-1" value="PyFly" style="rounded=1;whiteSpace=wrap;html=1;labelBackgroundColor=none;strokeColor=#99FFFF;fillColor=#99FFFF;labelPosition=center;verticalLabelPosition=top;align=center;verticalAlign=bottom;spacingTop=0;opacity=70;" parent="D4b-QVvL7qLMzF1wo6HN-1" vertex="1">
          <mxGeometry x="670" y="70" width="250" height="225" as="geometry" />
        </mxCell>
        <mxCell id="cQaq2ZN7SKqvUSlhL3z2-2" value="Reinforcement Learning Controller" style="rounded=0;whiteSpace=wrap;html=1;" parent="D4b-QVvL7qLMzF1wo6HN-1" vertex="1">
          <mxGeometry x="275" y="152.5" width="150" height="60" as="geometry" />
        </mxCell>
        <mxCell id="cQaq2ZN7SKqvUSlhL3z2-3" value="&lt;div align=&quot;center&quot;&gt;Environment Model&lt;/div&gt;" style="rounded=0;whiteSpace=wrap;html=1;align=center;labelPosition=center;verticalLabelPosition=top;verticalAlign=bottom;fillColor=#99FF33;" parent="D4b-QVvL7qLMzF1wo6HN-1" vertex="1">
          <mxGeometry x="700" y="132.5" width="200" height="100" as="geometry" />
        </mxCell>
        <mxCell id="cQaq2ZN7SKqvUSlhL3z2-4" value="UAV Model " style="rounded=0;whiteSpace=wrap;html=1;fillColor=#99FF33;" parent="D4b-QVvL7qLMzF1wo6HN-1" vertex="1">
          <mxGeometry x="740" y="152.5" width="120" height="60" as="geometry" />
        </mxCell>
        <mxCell id="cQaq2ZN7SKqvUSlhL3z2-5" value="Sensor Model" style="rounded=0;whiteSpace=wrap;html=1;fillColor=#99FF33;" parent="D4b-QVvL7qLMzF1wo6HN-1" vertex="1">
          <mxGeometry x="376" y="337.5" width="120" height="60" as="geometry" />
        </mxCell>
        <mxCell id="cQaq2ZN7SKqvUSlhL3z2-6" value="" style="endArrow=classic;html=1;exitX=1;exitY=0.5;exitDx=0;exitDy=0;entryX=0;entryY=0.5;entryDx=0;entryDy=0;" parent="D4b-QVvL7qLMzF1wo6HN-1" source="cQaq2ZN7SKqvUSlhL3z2-2" target="cQaq2ZN7SKqvUSlhL3z2-4" edge="1">
          <mxGeometry width="50" height="50" relative="1" as="geometry">
            <mxPoint x="386" y="267.5" as="sourcePoint" />
            <mxPoint x="436" y="217.5" as="targetPoint" />
          </mxGeometry>
        </mxCell>
        <mxCell id="cQaq2ZN7SKqvUSlhL3z2-7" value="" style="endArrow=classic;html=1;entryX=0;entryY=0.5;entryDx=0;entryDy=0;exitX=1;exitY=0.5;exitDx=0;exitDy=0;" parent="D4b-QVvL7qLMzF1wo6HN-1" source="cQaq2ZN7SKqvUSlhL3z2-8" target="cQaq2ZN7SKqvUSlhL3z2-2" edge="1">
          <mxGeometry width="50" height="50" relative="1" as="geometry">
            <mxPoint x="76" y="182" as="sourcePoint" />
            <mxPoint x="156" y="182" as="targetPoint" />
          </mxGeometry>
        </mxCell>
        <mxCell id="cQaq2ZN7SKqvUSlhL3z2-8" value="Maneuver or Waypoint" style="text;html=1;strokeColor=none;fillColor=none;align=center;verticalAlign=middle;whiteSpace=wrap;rounded=0;labelBackgroundColor=none;opacity=70;" parent="D4b-QVvL7qLMzF1wo6HN-1" vertex="1">
          <mxGeometry x="46" y="150" width="100" height="65" as="geometry" />
        </mxCell>
        <mxCell id="cQaq2ZN7SKqvUSlhL3z2-9" value="Buffer + Encoder" style="rounded=0;whiteSpace=wrap;html=1;" parent="D4b-QVvL7qLMzF1wo6HN-1" vertex="1">
          <mxGeometry x="226" y="337.5" width="120" height="60" as="geometry" />
        </mxCell>
        <mxCell id="cQaq2ZN7SKqvUSlhL3z2-10" value="" style="endArrow=classic;html=1;exitX=0;exitY=0.5;exitDx=0;exitDy=0;entryX=1;entryY=0.5;entryDx=0;entryDy=0;" parent="D4b-QVvL7qLMzF1wo6HN-1" source="cQaq2ZN7SKqvUSlhL3z2-5" target="cQaq2ZN7SKqvUSlhL3z2-9" edge="1">
          <mxGeometry width="50" height="50" relative="1" as="geometry">
            <mxPoint x="386" y="267.5" as="sourcePoint" />
            <mxPoint x="436" y="217.5" as="targetPoint" />
          </mxGeometry>
        </mxCell>
        <mxCell id="cQaq2ZN7SKqvUSlhL3z2-11" value="" style="endArrow=classic;html=1;exitX=0;exitY=0.5;exitDx=0;exitDy=0;entryX=0.5;entryY=1;entryDx=0;entryDy=0;" parent="D4b-QVvL7qLMzF1wo6HN-1" source="cQaq2ZN7SKqvUSlhL3z2-9" target="cQaq2ZN7SKqvUSlhL3z2-2" edge="1">
          <mxGeometry width="50" height="50" relative="1" as="geometry">
            <mxPoint x="386" y="267.5" as="sourcePoint" />
            <mxPoint x="436" y="217.5" as="targetPoint" />
            <Array as="points">
              <mxPoint x="186" y="367.5" />
              <mxPoint x="186" y="287.5" />
              <mxPoint x="350" y="287.5" />
            </Array>
          </mxGeometry>
        </mxCell>
        <mxCell id="cQaq2ZN7SKqvUSlhL3z2-12" value="Gain(t)" style="text;html=1;strokeColor=none;fillColor=none;align=center;verticalAlign=middle;whiteSpace=wrap;rounded=0;labelBackgroundColor=none;opacity=70;" parent="D4b-QVvL7qLMzF1wo6HN-1" vertex="1">
          <mxGeometry x="456" y="192.5" width="40" height="20" as="geometry" />
        </mxCell>
        <mxCell id="cQaq2ZN7SKqvUSlhL3z2-13" value="State Vector" style="text;html=1;strokeColor=none;fillColor=none;align=center;verticalAlign=middle;whiteSpace=wrap;rounded=0;labelBackgroundColor=none;opacity=70;" parent="D4b-QVvL7qLMzF1wo6HN-1" vertex="1">
          <mxGeometry x="756" y="300" width="40" height="20" as="geometry" />
        </mxCell>
        <mxCell id="cQaq2ZN7SKqvUSlhL3z2-14" value="" style="endArrow=classic;html=1;exitX=0.5;exitY=1;exitDx=0;exitDy=0;entryX=1;entryY=0.5;entryDx=0;entryDy=0;strokeWidth=1;" parent="D4b-QVvL7qLMzF1wo6HN-1" source="cQaq2ZN7SKqvUSlhL3z2-3" target="cQaq2ZN7SKqvUSlhL3z2-5" edge="1">
          <mxGeometry width="50" height="50" relative="1" as="geometry">
            <mxPoint x="386" y="267.5" as="sourcePoint" />
            <mxPoint x="656" y="367.5" as="targetPoint" />
            <Array as="points">
              <mxPoint x="800" y="368" />
            </Array>
          </mxGeometry>
        </mxCell>
        <mxCell id="cQaq2ZN7SKqvUSlhL3z2-15" value="" style="rounded=0;whiteSpace=wrap;html=1;align=center;labelPosition=center;verticalLabelPosition=top;verticalAlign=bottom;sketch=0;fillColor=#99FF33;" parent="D4b-QVvL7qLMzF1wo6HN-1" vertex="1">
          <mxGeometry x="175" y="452.5" width="60" height="20" as="geometry" />
        </mxCell>
        <mxCell id="cQaq2ZN7SKqvUSlhL3z2-16" value="Subject to Domain randomization" style="text;html=1;align=center;verticalAlign=middle;resizable=0;points=[];autosize=1;" parent="D4b-QVvL7qLMzF1wo6HN-1" vertex="1">
          <mxGeometry x="235" y="452.5" width="190" height="20" as="geometry" />
        </mxCell>
        <mxCell id="cQaq2ZN7SKqvUSlhL3z2-17" value="" style="endArrow=classic;html=1;strokeWidth=1;entryX=0.5;entryY=0;entryDx=0;entryDy=0;" parent="D4b-QVvL7qLMzF1wo6HN-1" target="cQaq2ZN7SKqvUSlhL3z2-2" edge="1">
          <mxGeometry width="50" height="50" relative="1" as="geometry">
            <mxPoint x="506" y="182.5" as="sourcePoint" />
            <mxPoint x="436" y="217.5" as="targetPoint" />
            <Array as="points">
              <mxPoint x="506" y="127.5" />
              <mxPoint x="350" y="127.5" />
            </Array>
          </mxGeometry>
        </mxCell>
        <mxCell id="cQaq2ZN7SKqvUSlhL3z2-18" value="" style="endArrow=classic;html=1;strokeWidth=1;entryX=0.5;entryY=0;entryDx=0;entryDy=0;" parent="D4b-QVvL7qLMzF1wo6HN-1" target="cQaq2ZN7SKqvUSlhL3z2-9" edge="1">
          <mxGeometry width="50" height="50" relative="1" as="geometry">
            <mxPoint x="506" y="177.5" as="sourcePoint" />
            <mxPoint x="436" y="217.5" as="targetPoint" />
            <Array as="points">
              <mxPoint x="506" y="317.5" />
              <mxPoint x="286" y="317.5" />
            </Array>
          </mxGeometry>
        </mxCell>
        <mxCell id="cQaq2ZN7SKqvUSlhL3z2-19" value="z⁻¹" style="text;html=1;align=center;verticalAlign=middle;resizable=0;points=[];autosize=1;" parent="D4b-QVvL7qLMzF1wo6HN-1" vertex="1">
          <mxGeometry x="406" y="107.5" width="30" height="20" as="geometry" />
        </mxCell>
        <mxCell id="cQaq2ZN7SKqvUSlhL3z2-20" value="Latent space" style="text;html=1;align=center;verticalAlign=middle;resizable=0;points=[];autosize=1;" parent="D4b-QVvL7qLMzF1wo6HN-1" vertex="1">
          <mxGeometry x="226" y="269.5" width="80" height="20" as="geometry" />
        </mxCell>
        <mxCell id="cQaq2ZN7SKqvUSlhL3z2-21" value="RL Agent" style="rounded=1;whiteSpace=wrap;html=1;labelBackgroundColor=none;strokeColor=#99FFFF;opacity=70;labelPosition=center;verticalLabelPosition=top;align=center;verticalAlign=bottom;fillColor=#FF3333;" parent="D4b-QVvL7qLMzF1wo6HN-1" vertex="1">
          <mxGeometry x="166" y="580" width="360" height="357.5" as="geometry" />
        </mxCell>
        <mxCell id="cQaq2ZN7SKqvUSlhL3z2-22" value="PyFly" style="rounded=1;whiteSpace=wrap;html=1;labelBackgroundColor=none;strokeColor=#99FFFF;fillColor=#99FFFF;labelPosition=center;verticalLabelPosition=top;align=center;verticalAlign=bottom;spacingTop=0;opacity=70;" parent="D4b-QVvL7qLMzF1wo6HN-1" vertex="1">
          <mxGeometry x="531" y="580" width="250" height="225" as="geometry" />
        </mxCell>
        <mxCell id="cQaq2ZN7SKqvUSlhL3z2-23" value="Reinforcement Learning Controller" style="rounded=0;whiteSpace=wrap;html=1;" parent="D4b-QVvL7qLMzF1wo6HN-1" vertex="1">
          <mxGeometry x="275" y="662.5" width="150" height="60" as="geometry" />
        </mxCell>
        <mxCell id="cQaq2ZN7SKqvUSlhL3z2-24" value="&lt;div align=&quot;center&quot;&gt;Environment Model&lt;/div&gt;" style="rounded=0;whiteSpace=wrap;html=1;align=center;labelPosition=center;verticalLabelPosition=top;verticalAlign=bottom;fillColor=#99FF33;" parent="D4b-QVvL7qLMzF1wo6HN-1" vertex="1">
          <mxGeometry x="556" y="642.5" width="200" height="100" as="geometry" />
        </mxCell>
        <mxCell id="cQaq2ZN7SKqvUSlhL3z2-25" value="UAV Model " style="rounded=0;whiteSpace=wrap;html=1;fillColor=#99FF33;" parent="D4b-QVvL7qLMzF1wo6HN-1" vertex="1">
          <mxGeometry x="596" y="662.5" width="120" height="60" as="geometry" />
        </mxCell>
        <mxCell id="cQaq2ZN7SKqvUSlhL3z2-26" value="Sensor Model" style="rounded=0;whiteSpace=wrap;html=1;fillColor=#99FF33;" parent="D4b-QVvL7qLMzF1wo6HN-1" vertex="1">
          <mxGeometry x="376" y="847.5" width="120" height="60" as="geometry" />
        </mxCell>
        <mxCell id="cQaq2ZN7SKqvUSlhL3z2-27" value="" style="endArrow=classic;html=1;exitX=1;exitY=0.5;exitDx=0;exitDy=0;entryX=0;entryY=0.5;entryDx=0;entryDy=0;" parent="D4b-QVvL7qLMzF1wo6HN-1" source="cQaq2ZN7SKqvUSlhL3z2-23" target="cQaq2ZN7SKqvUSlhL3z2-25" edge="1">
          <mxGeometry width="50" height="50" relative="1" as="geometry">
            <mxPoint x="386" y="777.5" as="sourcePoint" />
            <mxPoint x="436" y="727.5" as="targetPoint" />
          </mxGeometry>
        </mxCell>
        <mxCell id="cQaq2ZN7SKqvUSlhL3z2-28" value="" style="endArrow=classic;html=1;entryX=0;entryY=0.5;entryDx=0;entryDy=0;exitX=1;exitY=0.5;exitDx=0;exitDy=0;" parent="D4b-QVvL7qLMzF1wo6HN-1" source="cQaq2ZN7SKqvUSlhL3z2-29" target="cQaq2ZN7SKqvUSlhL3z2-23" edge="1">
          <mxGeometry width="50" height="50" relative="1" as="geometry">
            <mxPoint x="76" y="692" as="sourcePoint" />
            <mxPoint x="156" y="692" as="targetPoint" />
          </mxGeometry>
        </mxCell>
        <mxCell id="cQaq2ZN7SKqvUSlhL3z2-29" value="Maneuver or Waypoint" style="text;html=1;strokeColor=none;fillColor=none;align=center;verticalAlign=middle;whiteSpace=wrap;rounded=0;labelBackgroundColor=none;opacity=70;" parent="D4b-QVvL7qLMzF1wo6HN-1" vertex="1">
          <mxGeometry x="46" y="660" width="100" height="65" as="geometry" />
        </mxCell>
        <mxCell id="cQaq2ZN7SKqvUSlhL3z2-30" value="Buffer + Encoder" style="rounded=0;whiteSpace=wrap;html=1;" parent="D4b-QVvL7qLMzF1wo6HN-1" vertex="1">
          <mxGeometry x="226" y="847.5" width="120" height="60" as="geometry" />
        </mxCell>
        <mxCell id="cQaq2ZN7SKqvUSlhL3z2-31" value="" style="endArrow=classic;html=1;exitX=0;exitY=0.5;exitDx=0;exitDy=0;entryX=1;entryY=0.5;entryDx=0;entryDy=0;" parent="D4b-QVvL7qLMzF1wo6HN-1" source="cQaq2ZN7SKqvUSlhL3z2-26" target="cQaq2ZN7SKqvUSlhL3z2-30" edge="1">
          <mxGeometry width="50" height="50" relative="1" as="geometry">
            <mxPoint x="386" y="777.5" as="sourcePoint" />
            <mxPoint x="436" y="727.5" as="targetPoint" />
          </mxGeometry>
        </mxCell>
        <mxCell id="cQaq2ZN7SKqvUSlhL3z2-32" value="" style="endArrow=classic;html=1;exitX=0;exitY=0.5;exitDx=0;exitDy=0;entryX=0.5;entryY=1;entryDx=0;entryDy=0;" parent="D4b-QVvL7qLMzF1wo6HN-1" source="cQaq2ZN7SKqvUSlhL3z2-30" target="cQaq2ZN7SKqvUSlhL3z2-23" edge="1">
          <mxGeometry width="50" height="50" relative="1" as="geometry">
            <mxPoint x="386" y="777.5" as="sourcePoint" />
            <mxPoint x="436" y="727.5" as="targetPoint" />
            <Array as="points">
              <mxPoint x="186" y="877.5" />
              <mxPoint x="186" y="797.5" />
              <mxPoint x="350" y="797.5" />
            </Array>
          </mxGeometry>
        </mxCell>
        <mxCell id="cQaq2ZN7SKqvUSlhL3z2-33" value="Action Vector" style="text;html=1;strokeColor=none;fillColor=none;align=center;verticalAlign=middle;whiteSpace=wrap;rounded=0;labelBackgroundColor=none;opacity=70;" parent="D4b-QVvL7qLMzF1wo6HN-1" vertex="1">
          <mxGeometry x="456" y="702.5" width="40" height="20" as="geometry" />
        </mxCell>
        <mxCell id="cQaq2ZN7SKqvUSlhL3z2-34" value="State Vector" style="text;html=1;strokeColor=none;fillColor=none;align=center;verticalAlign=middle;whiteSpace=wrap;rounded=0;labelBackgroundColor=none;opacity=70;" parent="D4b-QVvL7qLMzF1wo6HN-1" vertex="1">
          <mxGeometry x="616" y="797.5" width="40" height="20" as="geometry" />
        </mxCell>
        <mxCell id="cQaq2ZN7SKqvUSlhL3z2-35" value="" style="endArrow=classic;html=1;exitX=0.5;exitY=1;exitDx=0;exitDy=0;entryX=1;entryY=0.5;entryDx=0;entryDy=0;strokeWidth=1;" parent="D4b-QVvL7qLMzF1wo6HN-1" source="cQaq2ZN7SKqvUSlhL3z2-24" target="cQaq2ZN7SKqvUSlhL3z2-26" edge="1">
          <mxGeometry width="50" height="50" relative="1" as="geometry">
            <mxPoint x="386" y="777.5" as="sourcePoint" />
            <mxPoint x="656" y="877.5" as="targetPoint" />
            <Array as="points">
              <mxPoint x="656" y="877.5" />
            </Array>
          </mxGeometry>
        </mxCell>
        <mxCell id="cQaq2ZN7SKqvUSlhL3z2-36" value="" style="rounded=0;whiteSpace=wrap;html=1;align=center;labelPosition=center;verticalLabelPosition=top;verticalAlign=bottom;sketch=0;fillColor=#99FF33;" parent="D4b-QVvL7qLMzF1wo6HN-1" vertex="1">
          <mxGeometry x="186" y="1030" width="60" height="20" as="geometry" />
        </mxCell>
        <mxCell id="cQaq2ZN7SKqvUSlhL3z2-37" value="Subject to Domain randomization" style="text;html=1;align=center;verticalAlign=middle;resizable=0;points=[];autosize=1;" parent="D4b-QVvL7qLMzF1wo6HN-1" vertex="1">
          <mxGeometry x="246" y="1030" width="190" height="20" as="geometry" />
        </mxCell>
        <mxCell id="cQaq2ZN7SKqvUSlhL3z2-38" value="" style="endArrow=classic;html=1;strokeWidth=1;entryX=0.5;entryY=0;entryDx=0;entryDy=0;" parent="D4b-QVvL7qLMzF1wo6HN-1" target="cQaq2ZN7SKqvUSlhL3z2-23" edge="1">
          <mxGeometry width="50" height="50" relative="1" as="geometry">
            <mxPoint x="506" y="692.5" as="sourcePoint" />
            <mxPoint x="436" y="727.5" as="targetPoint" />
            <Array as="points">
              <mxPoint x="506" y="637.5" />
              <mxPoint x="350" y="637.5" />
            </Array>
          </mxGeometry>
        </mxCell>
        <mxCell id="cQaq2ZN7SKqvUSlhL3z2-39" value="" style="endArrow=classic;html=1;strokeWidth=1;entryX=0.5;entryY=0;entryDx=0;entryDy=0;" parent="D4b-QVvL7qLMzF1wo6HN-1" target="cQaq2ZN7SKqvUSlhL3z2-30" edge="1">
          <mxGeometry width="50" height="50" relative="1" as="geometry">
            <mxPoint x="506" y="687.5" as="sourcePoint" />
            <mxPoint x="436" y="727.5" as="targetPoint" />
            <Array as="points">
              <mxPoint x="506" y="827.5" />
              <mxPoint x="286" y="827.5" />
            </Array>
          </mxGeometry>
        </mxCell>
        <mxCell id="cQaq2ZN7SKqvUSlhL3z2-40" value="z⁻¹" style="text;html=1;align=center;verticalAlign=middle;resizable=0;points=[];autosize=1;" parent="D4b-QVvL7qLMzF1wo6HN-1" vertex="1">
          <mxGeometry x="406" y="617.5" width="30" height="20" as="geometry" />
        </mxCell>
        <mxCell id="cQaq2ZN7SKqvUSlhL3z2-41" value="Latent space" style="text;html=1;align=center;verticalAlign=middle;resizable=0;points=[];autosize=1;" parent="D4b-QVvL7qLMzF1wo6HN-1" vertex="1">
          <mxGeometry x="226" y="779.5" width="80" height="20" as="geometry" />
        </mxCell>
        <mxCell id="cQaq2ZN7SKqvUSlhL3z2-42" value="Decoder" style="rounded=0;whiteSpace=wrap;html=1;" parent="D4b-QVvL7qLMzF1wo6HN-1" vertex="1">
          <mxGeometry x="10" y="847.5" width="120" height="60" as="geometry" />
        </mxCell>
        <mxCell id="cQaq2ZN7SKqvUSlhL3z2-43" value="" style="endArrow=classic;html=1;strokeWidth=1;exitX=0;exitY=0.5;exitDx=0;exitDy=0;entryX=1;entryY=0.5;entryDx=0;entryDy=0;" parent="D4b-QVvL7qLMzF1wo6HN-1" source="cQaq2ZN7SKqvUSlhL3z2-30" target="cQaq2ZN7SKqvUSlhL3z2-42" edge="1">
          <mxGeometry width="50" height="50" relative="1" as="geometry">
            <mxPoint x="210" y="770" as="sourcePoint" />
            <mxPoint x="260" y="720" as="targetPoint" />
          </mxGeometry>
        </mxCell>
        <mxCell id="cQaq2ZN7SKqvUSlhL3z2-44" value="" style="endArrow=classic;html=1;strokeWidth=1;exitX=0;exitY=0.5;exitDx=0;exitDy=0;entryX=0;entryY=0.5;entryDx=0;entryDy=0;" parent="D4b-QVvL7qLMzF1wo6HN-1" source="cQaq2ZN7SKqvUSlhL3z2-42" target="cQaq2ZN7SKqvUSlhL3z2-48" edge="1">
          <mxGeometry width="50" height="50" relative="1" as="geometry">
            <mxPoint x="340" y="740" as="sourcePoint" />
            <mxPoint x="-90" y="878" as="targetPoint" />
            <Array as="points">
              <mxPoint x="-30" y="878" />
              <mxPoint x="-30" y="980" />
            </Array>
          </mxGeometry>
        </mxCell>
        <mxCell id="cQaq2ZN7SKqvUSlhL3z2-45" value="PID Controller" style="rounded=0;whiteSpace=wrap;html=1;" parent="D4b-QVvL7qLMzF1wo6HN-1" vertex="1">
          <mxGeometry x="550" y="152.5" width="96" height="60" as="geometry" />
        </mxCell>
        <mxCell id="cQaq2ZN7SKqvUSlhL3z2-47" value="State Vector" style="text;html=1;strokeColor=none;fillColor=none;align=center;verticalAlign=middle;whiteSpace=wrap;rounded=0;labelBackgroundColor=none;opacity=70;" parent="D4b-QVvL7qLMzF1wo6HN-1" vertex="1">
          <mxGeometry x="-60" y="847.5" width="40" height="20" as="geometry" />
        </mxCell>
        <mxCell id="cQaq2ZN7SKqvUSlhL3z2-48" value="&lt;i&gt;&lt;b&gt;&lt;font style=&quot;font-size: 16px&quot; face=&quot;Lucida Console&quot;&gt;L&lt;sub&gt;reconstr&lt;/sub&gt;&lt;/font&gt;&lt;/b&gt;&lt;/i&gt;" style="shape=process;whiteSpace=wrap;html=1;backgroundOutline=1;labelBackgroundColor=none;sketch=0;fillColor=#FFFFFF;" parent="D4b-QVvL7qLMzF1wo6HN-1" vertex="1">
          <mxGeometry x="286" y="950" width="120" height="60" as="geometry" />
        </mxCell>
        <mxCell id="cQaq2ZN7SKqvUSlhL3z2-49" value="" style="endArrow=classic;html=1;strokeWidth=1;exitX=0.5;exitY=1;exitDx=0;exitDy=0;entryX=1;entryY=0.5;entryDx=0;entryDy=0;" parent="D4b-QVvL7qLMzF1wo6HN-1" source="cQaq2ZN7SKqvUSlhL3z2-24" target="cQaq2ZN7SKqvUSlhL3z2-48" edge="1">
          <mxGeometry width="50" height="50" relative="1" as="geometry">
            <mxPoint x="360" y="870" as="sourcePoint" />
            <mxPoint x="410" y="820" as="targetPoint" />
            <Array as="points">
              <mxPoint x="656" y="980" />
            </Array>
          </mxGeometry>
        </mxCell>
      </root>
    </mxGraphModel>
  </diagram>
  <diagram id="CO9vCoT_M0_UXLI4huH2" name="Page-3">
    <mxGraphModel dx="1152" dy="831" grid="1" gridSize="10" guides="1" tooltips="1" connect="1" arrows="1" fold="1" page="1" pageScale="1" pageWidth="827" pageHeight="1169" math="0" shadow="0">
      <root>
        <mxCell id="KusEbAgomEbsq9QIMuh8-0" />
        <mxCell id="KusEbAgomEbsq9QIMuh8-1" parent="KusEbAgomEbsq9QIMuh8-0" />
        <mxCell id="s3cbjP1FdQr7wDcfEZhN-1" value="RL Agent" style="rounded=1;whiteSpace=wrap;html=1;labelBackgroundColor=none;strokeColor=#99FFFF;opacity=70;labelPosition=center;verticalLabelPosition=top;align=center;verticalAlign=bottom;fillColor=#FF3333;" vertex="1" parent="KusEbAgomEbsq9QIMuh8-1">
          <mxGeometry x="530" y="310" width="360" height="357.5" as="geometry" />
        </mxCell>
        <mxCell id="s3cbjP1FdQr7wDcfEZhN-2" value="PyFly" style="rounded=1;whiteSpace=wrap;html=1;labelBackgroundColor=none;strokeColor=#99FFFF;fillColor=#99FFFF;labelPosition=center;verticalLabelPosition=top;align=center;verticalAlign=bottom;spacingTop=0;opacity=70;" vertex="1" parent="KusEbAgomEbsq9QIMuh8-1">
          <mxGeometry x="1034" y="310" width="250" height="225" as="geometry" />
        </mxCell>
        <mxCell id="s3cbjP1FdQr7wDcfEZhN-3" value="Reinforcement Learning Controller" style="rounded=0;whiteSpace=wrap;html=1;" vertex="1" parent="KusEbAgomEbsq9QIMuh8-1">
          <mxGeometry x="639" y="392.5" width="150" height="60" as="geometry" />
        </mxCell>
        <mxCell id="s3cbjP1FdQr7wDcfEZhN-4" value="&lt;div align=&quot;center&quot;&gt;Environment Model&lt;/div&gt;" style="rounded=0;whiteSpace=wrap;html=1;align=center;labelPosition=center;verticalLabelPosition=top;verticalAlign=bottom;fillColor=#99FF33;" vertex="1" parent="KusEbAgomEbsq9QIMuh8-1">
          <mxGeometry x="1064" y="372.5" width="200" height="100" as="geometry" />
        </mxCell>
        <mxCell id="s3cbjP1FdQr7wDcfEZhN-5" value="UAV Model " style="rounded=0;whiteSpace=wrap;html=1;fillColor=#99FF33;" vertex="1" parent="KusEbAgomEbsq9QIMuh8-1">
          <mxGeometry x="1104" y="392.5" width="120" height="60" as="geometry" />
        </mxCell>
        <mxCell id="s3cbjP1FdQr7wDcfEZhN-6" value="Sensor Model" style="rounded=0;whiteSpace=wrap;html=1;fillColor=#99FF33;" vertex="1" parent="KusEbAgomEbsq9QIMuh8-1">
          <mxGeometry x="740" y="577.5" width="120" height="60" as="geometry" />
        </mxCell>
        <mxCell id="s3cbjP1FdQr7wDcfEZhN-7" value="" style="endArrow=classic;html=1;exitX=1;exitY=0.5;exitDx=0;exitDy=0;entryX=0;entryY=0.5;entryDx=0;entryDy=0;" edge="1" source="s3cbjP1FdQr7wDcfEZhN-3" target="s3cbjP1FdQr7wDcfEZhN-5" parent="KusEbAgomEbsq9QIMuh8-1">
          <mxGeometry width="50" height="50" relative="1" as="geometry">
            <mxPoint x="750" y="507.5" as="sourcePoint" />
            <mxPoint x="800" y="457.5" as="targetPoint" />
          </mxGeometry>
        </mxCell>
        <mxCell id="s3cbjP1FdQr7wDcfEZhN-8" value="" style="endArrow=classic;html=1;entryX=0;entryY=0.5;entryDx=0;entryDy=0;exitX=1;exitY=0.5;exitDx=0;exitDy=0;" edge="1" source="s3cbjP1FdQr7wDcfEZhN-9" target="s3cbjP1FdQr7wDcfEZhN-3" parent="KusEbAgomEbsq9QIMuh8-1">
          <mxGeometry width="50" height="50" relative="1" as="geometry">
            <mxPoint x="440" y="422" as="sourcePoint" />
            <mxPoint x="520" y="422" as="targetPoint" />
          </mxGeometry>
        </mxCell>
        <mxCell id="s3cbjP1FdQr7wDcfEZhN-9" value="Maneuver or Waypoint" style="text;html=1;strokeColor=none;fillColor=none;align=center;verticalAlign=middle;whiteSpace=wrap;rounded=0;labelBackgroundColor=none;opacity=70;" vertex="1" parent="KusEbAgomEbsq9QIMuh8-1">
          <mxGeometry x="410" y="390" width="100" height="65" as="geometry" />
        </mxCell>
        <mxCell id="s3cbjP1FdQr7wDcfEZhN-10" value="Buffer + Encoder" style="rounded=0;whiteSpace=wrap;html=1;" vertex="1" parent="KusEbAgomEbsq9QIMuh8-1">
          <mxGeometry x="590" y="577.5" width="120" height="60" as="geometry" />
        </mxCell>
        <mxCell id="s3cbjP1FdQr7wDcfEZhN-11" value="" style="endArrow=classic;html=1;exitX=0;exitY=0.5;exitDx=0;exitDy=0;entryX=1;entryY=0.5;entryDx=0;entryDy=0;" edge="1" source="s3cbjP1FdQr7wDcfEZhN-6" target="s3cbjP1FdQr7wDcfEZhN-10" parent="KusEbAgomEbsq9QIMuh8-1">
          <mxGeometry width="50" height="50" relative="1" as="geometry">
            <mxPoint x="750" y="507.5" as="sourcePoint" />
            <mxPoint x="800" y="457.5" as="targetPoint" />
          </mxGeometry>
        </mxCell>
        <mxCell id="s3cbjP1FdQr7wDcfEZhN-12" value="" style="endArrow=classic;html=1;exitX=0;exitY=0.5;exitDx=0;exitDy=0;entryX=0.5;entryY=1;entryDx=0;entryDy=0;" edge="1" source="s3cbjP1FdQr7wDcfEZhN-10" target="s3cbjP1FdQr7wDcfEZhN-3" parent="KusEbAgomEbsq9QIMuh8-1">
          <mxGeometry width="50" height="50" relative="1" as="geometry">
            <mxPoint x="750" y="507.5" as="sourcePoint" />
            <mxPoint x="800" y="457.5" as="targetPoint" />
            <Array as="points">
              <mxPoint x="550" y="607.5" />
              <mxPoint x="550" y="527.5" />
              <mxPoint x="714" y="527.5" />
            </Array>
          </mxGeometry>
        </mxCell>
        <mxCell id="s3cbjP1FdQr7wDcfEZhN-13" value="Attitude" style="text;html=1;strokeColor=none;fillColor=none;align=center;verticalAlign=middle;whiteSpace=wrap;rounded=0;labelBackgroundColor=none;opacity=70;" vertex="1" parent="KusEbAgomEbsq9QIMuh8-1">
          <mxGeometry x="820" y="432.5" width="40" height="20" as="geometry" />
        </mxCell>
        <mxCell id="s3cbjP1FdQr7wDcfEZhN-14" value="State Vector" style="text;html=1;strokeColor=none;fillColor=none;align=center;verticalAlign=middle;whiteSpace=wrap;rounded=0;labelBackgroundColor=none;opacity=70;" vertex="1" parent="KusEbAgomEbsq9QIMuh8-1">
          <mxGeometry x="1120" y="540" width="40" height="20" as="geometry" />
        </mxCell>
        <mxCell id="s3cbjP1FdQr7wDcfEZhN-15" value="" style="endArrow=classic;html=1;exitX=0.5;exitY=1;exitDx=0;exitDy=0;entryX=1;entryY=0.5;entryDx=0;entryDy=0;strokeWidth=1;" edge="1" source="s3cbjP1FdQr7wDcfEZhN-4" target="s3cbjP1FdQr7wDcfEZhN-6" parent="KusEbAgomEbsq9QIMuh8-1">
          <mxGeometry width="50" height="50" relative="1" as="geometry">
            <mxPoint x="750" y="507.5" as="sourcePoint" />
            <mxPoint x="1020" y="607.5" as="targetPoint" />
            <Array as="points">
              <mxPoint x="1164" y="608" />
            </Array>
          </mxGeometry>
        </mxCell>
        <mxCell id="s3cbjP1FdQr7wDcfEZhN-16" value="" style="rounded=0;whiteSpace=wrap;html=1;align=center;labelPosition=center;verticalLabelPosition=top;verticalAlign=bottom;sketch=0;fillColor=#99FF33;" vertex="1" parent="KusEbAgomEbsq9QIMuh8-1">
          <mxGeometry x="539" y="692.5" width="60" height="20" as="geometry" />
        </mxCell>
        <mxCell id="s3cbjP1FdQr7wDcfEZhN-17" value="Subject to Domain randomization" style="text;html=1;align=center;verticalAlign=middle;resizable=0;points=[];autosize=1;" vertex="1" parent="KusEbAgomEbsq9QIMuh8-1">
          <mxGeometry x="599" y="692.5" width="190" height="20" as="geometry" />
        </mxCell>
        <mxCell id="s3cbjP1FdQr7wDcfEZhN-18" value="" style="endArrow=classic;html=1;strokeWidth=1;entryX=0.5;entryY=0;entryDx=0;entryDy=0;" edge="1" target="s3cbjP1FdQr7wDcfEZhN-3" parent="KusEbAgomEbsq9QIMuh8-1">
          <mxGeometry width="50" height="50" relative="1" as="geometry">
            <mxPoint x="870" y="422.5" as="sourcePoint" />
            <mxPoint x="800" y="457.5" as="targetPoint" />
            <Array as="points">
              <mxPoint x="870" y="367.5" />
              <mxPoint x="714" y="367.5" />
            </Array>
          </mxGeometry>
        </mxCell>
        <mxCell id="s3cbjP1FdQr7wDcfEZhN-19" value="" style="endArrow=classic;html=1;strokeWidth=1;entryX=0.5;entryY=0;entryDx=0;entryDy=0;" edge="1" target="s3cbjP1FdQr7wDcfEZhN-10" parent="KusEbAgomEbsq9QIMuh8-1">
          <mxGeometry width="50" height="50" relative="1" as="geometry">
            <mxPoint x="870" y="417.5" as="sourcePoint" />
            <mxPoint x="800" y="457.5" as="targetPoint" />
            <Array as="points">
              <mxPoint x="870" y="557.5" />
              <mxPoint x="650" y="557.5" />
            </Array>
          </mxGeometry>
        </mxCell>
        <mxCell id="s3cbjP1FdQr7wDcfEZhN-20" value="z⁻¹" style="text;html=1;align=center;verticalAlign=middle;resizable=0;points=[];autosize=1;" vertex="1" parent="KusEbAgomEbsq9QIMuh8-1">
          <mxGeometry x="770" y="347.5" width="30" height="20" as="geometry" />
        </mxCell>
        <mxCell id="s3cbjP1FdQr7wDcfEZhN-21" value="Latent space" style="text;html=1;align=center;verticalAlign=middle;resizable=0;points=[];autosize=1;" vertex="1" parent="KusEbAgomEbsq9QIMuh8-1">
          <mxGeometry x="590" y="509.5" width="80" height="20" as="geometry" />
        </mxCell>
        <mxCell id="s3cbjP1FdQr7wDcfEZhN-22" value="PID Controller" style="rounded=0;whiteSpace=wrap;html=1;" vertex="1" parent="KusEbAgomEbsq9QIMuh8-1">
          <mxGeometry x="914" y="392.5" width="96" height="60" as="geometry" />
        </mxCell>
      </root>
    </mxGraphModel>
  </diagram>
</mxfile>
